<svg xmlns="http://www.w3.org/2000/svg" fill="none" viewBox="0 0 32 32" height="1024" width="1024">
<path fill="url(#paint0_radial_7000_5051)" d="M15.2571 21.9469C15.788 22.2525 16.4357 22.2351 16.965 21.9267C19.912 20.2092 24.8531 16.4082 26.8145 11.4965C29.745 4.98714 22.8643 -0.20909 18.1087 3.52822C17.6457 3.89211 17.0714 4.30508 16.6479 4.7022C16.4046 4.93037 15.9809 4.95369 15.7312 4.73257C15.1665 4.23267 14.3463 3.6221 13.8095 3.25892C9.75527 0.515994 2.37856 4.13163 5.52521 11.8482C6.65972 15.2573 11.9987 20.0714 15.2571 21.9469Z"></path>
<path fill="url(#paint1_radial_7000_5051)" d="M15.2571 21.9469C15.788 22.2525 16.4357 22.2351 16.965 21.9267C19.912 20.2092 24.8531 16.4082 26.8145 11.4965C29.745 4.98714 22.8643 -0.20909 18.1087 3.52822C17.6457 3.89211 17.0714 4.30508 16.6479 4.7022C16.4046 4.93037 15.9809 4.95369 15.7312 4.73257C15.1665 4.23267 14.3463 3.6221 13.8095 3.25892C9.75527 0.515994 2.37856 4.13163 5.52521 11.8482C6.65972 15.2573 11.9987 20.0714 15.2571 21.9469Z"></path>
<path fill="url(#paint2_radial_7000_5051)" d="M15.2571 21.9469C15.788 22.2525 16.4357 22.2351 16.965 21.9267C19.912 20.2092 24.8531 16.4082 26.8145 11.4965C29.745 4.98714 22.8643 -0.20909 18.1087 3.52822C17.6457 3.89211 17.0714 4.30508 16.6479 4.7022C16.4046 4.93037 15.9809 4.95369 15.7312 4.73257C15.1665 4.23267 14.3463 3.6221 13.8095 3.25892C9.75527 0.515994 2.37856 4.13163 5.52521 11.8482C6.65972 15.2573 11.9987 20.0714 15.2571 21.9469Z"></path>
<path fill="url(#paint3_radial_7000_5051)" d="M15.2571 21.9469C15.788 22.2525 16.4357 22.2351 16.965 21.9267C19.912 20.2092 24.8531 16.4082 26.8145 11.4965C29.745 4.98714 22.8643 -0.20909 18.1087 3.52822C17.6457 3.89211 17.0714 4.30508 16.6479 4.7022C16.4046 4.93037 15.9809 4.95369 15.7312 4.73257C15.1665 4.23267 14.3463 3.6221 13.8095 3.25892C9.75527 0.515994 2.37856 4.13163 5.52521 11.8482C6.65972 15.2573 11.9987 20.0714 15.2571 21.9469Z"></path>
<path fill="url(#paint4_linear_7000_5051)" d="M15.2571 21.9469C15.788 22.2525 16.4357 22.2351 16.965 21.9267C19.912 20.2092 24.8531 16.4082 26.8145 11.4965C29.745 4.98714 22.8643 -0.20909 18.1087 3.52822C17.6457 3.89211 17.0714 4.30508 16.6479 4.7022C16.4046 4.93037 15.9809 4.95369 15.7312 4.73257C15.1665 4.23267 14.3463 3.6221 13.8095 3.25892C9.75527 0.515994 2.37856 4.13163 5.52521 11.8482C6.65972 15.2573 11.9987 20.0714 15.2571 21.9469Z"></path>
<path fill="url(#paint5_linear_7000_5051)" d="M15.2571 21.9469C15.788 22.2525 16.4357 22.2351 16.965 21.9267C19.912 20.2092 24.8531 16.4082 26.8145 11.4965C29.745 4.98714 22.8643 -0.20909 18.1087 3.52822C17.6457 3.89211 17.0714 4.30508 16.6479 4.7022C16.4046 4.93037 15.9809 4.95369 15.7312 4.73257C15.1665 4.23267 14.3463 3.6221 13.8095 3.25892C9.75527 0.515994 2.37856 4.13163 5.52521 11.8482C6.65972 15.2573 11.9987 20.0714 15.2571 21.9469Z"></path>
<g filter="url(#filter0_f_7000_5051)">
<path fill="#FA1C56" d="M16.623 6.9428V16.4987C16.623 17.4036 17.6492 17.7715 18.1228 17.0005C19.5984 14.5978 20.9045 11.0945 20.0292 8.27743C19.5439 6.71572 18.1229 6.11876 17.1756 6.2044C16.8187 6.23667 16.623 6.58442 16.623 6.9428Z"></path>
</g>
<g filter="url(#filter1_f_7000_5051)">
<ellipse fill="url(#paint6_radial_7000_5051)" transform="rotate(-44.1901 23.2778 7.34491)" ry="2.33847" rx="3.39858" cy="7.34491" cx="23.2778"></ellipse>
</g>
<circle fill="url(#paint7_radial_7000_5051)" r="3.21094" cy="26.9766" cx="16"></circle>
<circle fill="url(#paint8_radial_7000_5051)" r="3.21094" cy="26.9766" cx="16"></circle>
<circle fill="url(#paint9_radial_7000_5051)" r="3.21094" cy="26.9766" cx="16"></circle>
<g filter="url(#filter2_f_7000_5051)">
<ellipse fill="url(#paint10_radial_7000_5051)" transform="rotate(-21.467 17.0725 26.4346)" ry="1.26645" rx="1.36291" cy="26.4346" cx="17.0725"></ellipse>
</g>
<g filter="url(#filter3_f_7000_5051)">
<ellipse fill-opacity="0.6" fill="url(#paint11_radial_7000_5051)" transform="rotate(-128.955 14.0625 7.34499)" ry="2.10656" rx="3.90466" cy="7.34499" cx="14.0625"></ellipse>
</g>
<defs>
<filter color-interpolation-filters="sRGB" filterUnits="userSpaceOnUse" height="15.2228" width="7.68867" y="4.19641" x="14.623" id="filter0_f_7000_5051">
<feFlood result="BackgroundImageFix" flood-opacity="0"></feFlood>
<feBlend result="shape" in2="BackgroundImageFix" in="SourceGraphic" mode="normal"></feBlend>
<feGaussianBlur result="effect1_foregroundBlur_7000_5051" stdDeviation="1"></feGaussianBlur>
</filter>
<filter color-interpolation-filters="sRGB" filterUnits="userSpaceOnUse" height="8.80505" width="8.86419" y="2.94238" x="18.8457" id="filter1_f_7000_5051">
<feFlood result="BackgroundImageFix" flood-opacity="0"></feFlood>
<feBlend result="shape" in2="BackgroundImageFix" in="SourceGraphic" mode="normal"></feBlend>
<feGaussianBlur result="effect1_foregroundBlur_7000_5051" stdDeviation="0.75"></feGaussianBlur>
</filter>
<filter color-interpolation-filters="sRGB" filterUnits="userSpaceOnUse" height="4.5603" width="4.70152" y="24.1544" x="14.7217" id="filter2_f_7000_5051">
<feFlood result="BackgroundImageFix" flood-opacity="0"></feFlood>
<feBlend result="shape" in2="BackgroundImageFix" in="SourceGraphic" mode="normal"></feBlend>
<feGaussianBlur result="effect1_foregroundBlur_7000_5051" stdDeviation="0.5"></feGaussianBlur>
</filter>
<filter color-interpolation-filters="sRGB" filterUnits="userSpaceOnUse" height="9.62695" width="8.90321" y="2.53149" x="9.61088" id="filter3_f_7000_5051">
<feFlood result="BackgroundImageFix" flood-opacity="0"></feFlood>
<feBlend result="shape" in2="BackgroundImageFix" in="SourceGraphic" mode="normal"></feBlend>
<feGaussianBlur result="effect1_foregroundBlur_7000_5051" stdDeviation="0.75"></feGaussianBlur>
</filter>
<radialGradient gradientTransform="translate(18.4496 21.8535) rotate(-90) scale(26.6008 45.2214)" gradientUnits="userSpaceOnUse" r="1" cy="0" cx="0" id="paint0_radial_7000_5051">
<stop stop-color="#F12E52"></stop>
<stop stop-color="#FF3B79" offset="0.596003"></stop>
<stop stop-color="#FF4EC6" offset="1"></stop>
</radialGradient>
<radialGradient gradientTransform="translate(21.7871 7.46981) rotate(142.986) scale(21.4136 40.1098)" gradientUnits="userSpaceOnUse" r="1" cy="0" cx="0" id="paint1_radial_7000_5051">
<stop stop-opacity="0" stop-color="#B91D43" offset="0.483055"></stop>
<stop stop-color="#B91D43" offset="0.833898"></stop>
</radialGradient>
<radialGradient gradientTransform="translate(19.3147 12.7162) rotate(-158.663) scale(18.5745 26.2576)" gradientUnits="userSpaceOnUse" r="1" cy="0" cx="0" id="paint2_radial_7000_5051">
<stop stop-opacity="0" stop-color="#B91D43" offset="0.40984"></stop>
<stop stop-color="#B91D43" offset="0.833898"></stop>
</radialGradient>
<radialGradient gradientTransform="translate(15.6922 9.47221) rotate(90) scale(16.1659 16.1659)" gradientUnits="userSpaceOnUse" r="1" cy="0" cx="0" id="paint3_radial_7000_5051">
<stop stop-opacity="0" stop-color="#FF7AF2" offset="0.671096"></stop>
<stop stop-color="#FFBCE6" offset="0.933555"></stop>
</radialGradient>
<linearGradient gradientUnits="userSpaceOnUse" y2="19.1501" x2="24.0185" y1="11.3645" x1="17.4765" id="paint4_linear_7000_5051">
<stop stop-opacity="0" stop-color="#FF7AF2" offset="0.694491"></stop>
<stop stop-color="#FFBCE6" offset="0.933555"></stop>
</linearGradient>
<linearGradient gradientUnits="userSpaceOnUse" y2="20.3396" x2="8.98798" y1="11.6889" x1="16.6655" id="paint5_linear_7000_5051">
<stop stop-opacity="0" stop-color="#FF7AF2" offset="0.694491"></stop>
<stop stop-color="#FFBCE6" offset="0.933555"></stop>
</linearGradient>
<radialGradient gradientTransform="translate(26.6982 8.06398) rotate(-176.775) scale(5.02594 3.39374)" gradientUnits="userSpaceOnUse" r="1" cy="0" cx="0" id="paint6_radial_7000_5051">
<stop stop-color="#FF93BA"></stop>
<stop stop-opacity="0" stop-color="#FF73A6" offset="1"></stop>
</radialGradient>
<radialGradient gradientTransform="translate(14.1958 29.8156) rotate(-45) scale(7.4596 12.0939)" gradientUnits="userSpaceOnUse" r="1" cy="0" cx="0" id="paint7_radial_7000_5051">
<stop stop-color="#F12E52"></stop>
<stop stop-color="#FF3B79" offset="0.596003"></stop>
<stop stop-color="#FF4EC6" offset="1"></stop>
</radialGradient>
<radialGradient gradientTransform="translate(16 26.4687) rotate(110.556) scale(4.73925 4.85721)" gradientUnits="userSpaceOnUse" r="1" cy="0" cx="0" id="paint8_radial_7000_5051">
<stop stop-opacity="0" stop-color="#FF7AF2" offset="0.671096"></stop>
<stop stop-color="#FFBCE6" offset="0.933555"></stop>
</radialGradient>
<radialGradient gradientTransform="translate(19.2109 28.9375) rotate(-152.663) scale(8.30216 8.87118)" gradientUnits="userSpaceOnUse" r="1" cy="0" cx="0" id="paint9_radial_7000_5051">
<stop stop-opacity="0" stop-color="#B91D43" offset="0.40984"></stop>
<stop stop-color="#B91D43" offset="0.833898"></stop>
</radialGradient>
<radialGradient gradientTransform="translate(18.7458 26.6517) rotate(174.347) scale(3.03081 5.73982)" gradientUnits="userSpaceOnUse" r="1" cy="0" cx="0" id="paint10_radial_7000_5051">
<stop stop-color="#FFA3BD"></stop>
<stop stop-opacity="0" stop-color="#FF80A3" offset="1"></stop>
</radialGradient>
<radialGradient gradientTransform="translate(16.3675 7.9139) rotate(-178.667) scale(8.31012 4.40121)" gradientUnits="userSpaceOnUse" r="1" cy="0" cx="0" id="paint11_radial_7000_5051">
<stop stop-color="#FF93BA"></stop>
<stop stop-opacity="0" stop-color="#FF73A6" offset="1"></stop>
</radialGradient>
</defs>
</svg>
